<mxfile host="app.diagrams.net" modified="2021-08-04T13:23:00.001Z" agent="5.0 (Macintosh; Intel Mac OS X 10_15_7) AppleWebKit/605.1.15 (KHTML, like Gecko) Version/14.1.1 Safari/605.1.15" etag="GNCNcsTPGJZPVCEhg2BJ" version="14.9.4" type="github">
  <diagram id="b-6OOeeyG3hbsVhAhYDM" name="第 1 页">
    <mxGraphModel dx="946" dy="501" grid="1" gridSize="10" guides="1" tooltips="1" connect="1" arrows="1" fold="1" page="1" pageScale="1" pageWidth="827" pageHeight="1169" math="0" shadow="0">
      <root>
        <mxCell id="0" />
        <mxCell id="1" parent="0" />
        <mxCell id="2KEB7oV_MC-YSNvE5zwz-1" value="¥1,000,000.00" style="rounded=1;whiteSpace=wrap;html=1;fontSize=16;fillColor=#ffff88;strokeColor=#36393d;fontStyle=1;fontFamily=Comic Sans MS;" vertex="1" parent="1">
          <mxGeometry x="320" y="150" width="210" height="60" as="geometry" />
        </mxCell>
        <mxCell id="2KEB7oV_MC-YSNvE5zwz-2" value="小林的钱包" style="text;html=1;align=center;verticalAlign=middle;resizable=0;points=[];autosize=1;strokeColor=none;fontSize=16;fontStyle=0" vertex="1" parent="1">
          <mxGeometry x="210" y="170" width="100" height="20" as="geometry" />
        </mxCell>
      </root>
    </mxGraphModel>
  </diagram>
</mxfile>
